<?xml version="1.0" encoding="UTF-8" standalone="no"?>
<!-- Created with Inkscape (http://www.inkscape.org/) -->

<svg
   version="1.1"
   id="svg1"
   width="256"
   height="255.99998"
   viewBox="0 0 256.00001 255.99998"
   sodipodi:docname="favicon.svg"
   inkscape:version="1.4.3 (0d15f75042, 2025-12-25)"
   xmlns:inkscape="http://www.inkscape.org/namespaces/inkscape"
   xmlns:sodipodi="http://sodipodi.sourceforge.net/DTD/sodipodi-0.dtd"
   xmlns="http://www.w3.org/2000/svg"
   xmlns:svg="http://www.w3.org/2000/svg">
  <defs
     id="defs1" />
  <sodipodi:namedview
     id="namedview1"
     pagecolor="#ffffff"
     bordercolor="#000000"
     borderopacity="0.25"
     inkscape:showpageshadow="2"
     inkscape:pageopacity="0.0"
     inkscape:pagecheckerboard="0"
     inkscape:deskcolor="#d1d1d1"
     inkscape:zoom="0.48127454"
     inkscape:cx="-705.41858"
     inkscape:cy="1170.8494"
     inkscape:window-width="2560"
     inkscape:window-height="1374"
     inkscape:window-x="0"
     inkscape:window-y="0"
     inkscape:window-maximized="1"
     inkscape:current-layer="g1">
    <inkscape:page
       x="0"
       y="0"
       inkscape:label="1"
       id="page1"
       width="256"
       height="255.99998"
       margin="0"
       bleed="0" />
  </sodipodi:namedview>
  <g
     id="g1"
     inkscape:groupmode="layer"
     inkscape:label="1"
     transform="translate(-1444.1923,-558.06634)">
    <g
       id="g2"
       transform="matrix(-0.06387735,0,0,0.06387735,1742.5316,522.41854)">
      <path
         id="path3"
         d="m 2396.9466,4140.1067 c 61.0533,86.44 498.1733,375.6266 903.6133,124.7733 91.8,100.1067 193.6267,79.2533 242.32,41.7333 89.8267,-69.2133 40.5467,-227.64 30.8533,-256.2666 -36.36,-107.4267 -78.4,-198.1867 -191.1333,-185.3867 -102.16,6.3067 -264.36,75.8933 -346.24,-48.6667"
         style="fill:#ffffff;fill-opacity:1;fill-rule:nonzero;stroke:none;stroke-width:0.133333" />
      <path
         id="path4"
         d="m 3595.6666,4188.44 c -1.8934,44.32 -15.0667,89.16 -52.7734,118.2 -48.7333,37.4933 -150.5466,58.3333 -242.3333,-41.7467 -405.4266,250.84 -842.5733,-38.3333 -903.5866,-124.76 l 511.5466,-259.0933 127.8667,-64.7467 c 81.8533,124.56 244.0667,54.9867 346.1866,48.68 112.7467,-12.8133 154.8,77.92 191.1467,185.36 5.6133,16.6 24.5733,76.88 21.9467,138.1067"
         style="fill:#f9c9ca;fill-opacity:1;fill-rule:nonzero;stroke:none;stroke-width:0.133333" />
      <path
         id="path5"
         d="m 3595.6666,4188.44 c -1.8934,44.32 -15.0667,89.16 -52.7734,118.2 -48.7333,37.4933 -150.5466,58.3333 -242.3333,-41.7467 -405.4266,250.84 -842.5733,-38.3333 -903.5866,-124.76 l 511.5466,-259.0933 87.8,99.04 c 0,0 -45.5866,158.2667 99.7067,175.6933 154.28,18.5334 308.76,-103.44 308.76,-103.44 0,0 32.88,143.72 114.5866,158.6267 36.8,6.72 60.96,-6.3467 76.2934,-22.52"
         style="fill:#f9b2b2;fill-opacity:1;fill-rule:nonzero;stroke:none;stroke-width:0.133333" />
      <path
         id="path6"
         d="m 3595.6666,4188.44 c -1.8934,44.32 -15.0667,89.16 -52.7734,118.2 -48.7333,37.4933 -150.5466,58.3333 -242.3333,-41.7467 -1.16,0.7334 -2.3066,1.4134 -3.4666,2.0934 48.6799,-51.7734 95.1466,-120.8267 99.9199,-208.8267 5.04,-3.68 7.7734,-5.8267 7.7734,-5.8267 0,0 32.88,143.72 114.5866,158.6267 36.8,6.72 60.96,-6.3467 76.2934,-22.52"
         style="fill:#595959;fill-opacity:1;fill-rule:nonzero;stroke:none;stroke-width:0.133333" />
      <path
         id="path7"
         d="m 3542.8932,4306.64 c -48.7333,37.4933 -150.5466,58.3333 -242.3333,-41.7467 -1.16,0.7334 -2.3066,1.4134 -3.4666,2.0934 79.3466,-84.3734 152.6933,-214.6534 49.8266,-397.9734 12.5067,-1.88 24.4267,-3.36 35.6533,-4.04 112.7467,-12.8133 154.8,77.92 191.1467,185.36 9.7067,28.6134 58.96,187.0934 -30.8267,256.3067"
         style="fill:#f9c9ca;fill-opacity:1;fill-rule:nonzero;stroke:none;stroke-width:0.133333" />
      <path
         id="path8"
         d="m 3595.6666,4188.44 c -1.8934,44.32 -15.0667,89.16 -52.7734,118.2 -48.7333,37.4933 -150.5466,58.3333 -242.3333,-41.7467 -1.16,0.7334 -2.3066,1.4134 -3.4666,2.0934 48.6799,-51.7734 95.1466,-120.8267 99.9199,-208.8267 5.04,-3.68 7.7734,-5.8267 7.7734,-5.8267 0,0 32.88,143.72 114.5866,158.6267 36.8,6.72 60.96,-6.3467 76.2934,-22.52"
         style="fill:#f9b2b2;fill-opacity:1;fill-rule:nonzero;stroke:none;stroke-width:0.133333" />
      <path
         id="path9"
         d="m 2949.7066,4384.3867 c -88.96,0 -169.8,-16.44 -235.8267,-36.8267 -169.44,-52.32 -298.7733,-148.0267 -332.8133,-196.24 l 31.76,-22.44 c 26.7867,37.92 145.9467,130.0933 312.52,181.52 141.4133,43.6533 354.2267,68.3333 564.9733,-62.0533 7.96,-4.92 18.2667,-3.4934 24.5734,3.3866 87.5466,95.48 179.6399,67.5734 216.1199,39.48 78.28,-60.32 33.9867,-206.04 24.3067,-234.64 -40.52,-119.6933 -79.6933,-182.5866 -170.5333,-172.2933 -0.3334,0.04 -0.6667,0.067 -1,0.08 -21.9867,1.36 -47.6,5.92 -74.6933,10.76 -97.3867,17.36 -218.5867,38.96 -288.9867,-68.1333 l 32.5067,-21.3734 c 56.32,85.6667 159.0266,67.3734 249.6533,51.2134 28.04,-5 54.5333,-9.72 78.6266,-11.2534 128.1734,-14.2533 174.6134,90.2534 211.2667,198.5334 15.68,46.3466 59.3333,203.3733 -37.4,277.9066 -61.84,47.6667 -167.12,56.3734 -257.4266,-32.4666 -119.88,70.6533 -239.7334,94.84 -347.6267,94.84"
         style="fill:#650000;fill-opacity:1;fill-rule:nonzero;stroke:none;stroke-width:0.133333" />
      <path
         id="path10"
         d="m 3373.9999,4237.4 c 45.0267,50.7867 128.16,68.4667 184.08,26.4667 l 19.4133,33.7066 c -36.2133,17.0667 -79.3733,21.08 -116.76,7.4267 -35.32,-12.5733 -67.4533,-35.7067 -86.7333,-67.6"
         style="fill:#650000;fill-opacity:1;fill-rule:nonzero;stroke:none;stroke-width:0.133333" />
      <path
         id="path11"
         d="m 3260.0133,4266.1867 c 46.6,-25.9467 83.8399,-66.2934 113.9866,-110.4 -14.56,39.0266 -34.96,76.9066 -61.24,109.9733 -8.96,11.3333 -19.1466,21.9333 -30.1733,32.1067 l -22.5733,-31.68"
         style="fill:#650000;fill-opacity:1;fill-rule:nonzero;stroke:none;stroke-width:0.133333" />
      <path
         id="path12"
         d="m 2643.9599,3012.3867 c -221.9866,41.9467 -569.68,248.96 -902.7333,206.2933 -125.92,-12.7066 -304.8666,-95.52 -274.0666,-357.8533 27.2266,-188.4133 126.56,-279.5067 126.56,-279.5067 l 378.16,65.9734 c 244.7199,-3.72 332.9866,-50.1467 582.0666,-53.1067 l 90.0133,418.2"
         style="fill:#c97043;fill-opacity:1;fill-rule:nonzero;stroke:none;stroke-width:0.133333" />
      <path
         id="path13"
         d="m 2643.9599,3012.3734 c -94.9866,17.9333 -213.04,66.12 -343.1466,112.0666 -150.7067,53.2134 -317.5867,103.3734 -483.4933,99.8 -25.4134,-0.48 -50.8134,-2.2933 -76.1067,-5.56 -125.8933,-12.6933 -304.8267,-95.52 -274.04,-357.8666 27.2133,-188.3867 126.5333,-279.4934 126.5333,-279.4934 l 378.16,65.9734 c 244.7333,-3.7467 333,-50.1734 582.0667,-53.1067 l 90.0266,418.1867"
         style="fill:#c97043;fill-opacity:1;fill-rule:nonzero;stroke:none;stroke-width:0.133333" />
      <path
         id="path14"
         d="m 2643.9866,3012.3734 c -95.0133,17.9333 -213.08,66.12 -343.16,112.0533 -150.72,53.2 -317.5866,103.3733 -483.52,99.8267 -25.4,-0.48 -50.8,-2.3067 -76.0933,-5.5467 -125.8933,-12.6933 -304.84,-95.5333 -274.0667,-357.8933 27.24,-188.4 126.5867,-279.4934 126.5867,-279.4934 l 378.1067,65.96 c 85.7599,-1.3066 152.3466,-7.84 213.3333,-15.9466 113.04,-15 206.96,-35.2667 368.76,-37.16 l 28.6933,133.28 61.36,284.92"
         style="fill:#f9c9ca;fill-opacity:1;fill-rule:nonzero;stroke:none;stroke-width:0.133333" />
      <path
         id="path15"
         d="m 1522.68,2688.3334 c -16.1867,74.6133 46.6,164.52 98.12,160.48 42.4933,-3.32 21.6666,-105.6667 21.6666,-105.6667 l -52.84,-36.76 -66.9466,-18.0533"
         style="fill:#f9c9ca;fill-opacity:1;fill-rule:nonzero;stroke:none;stroke-width:0.133333" />
      <path
         id="path16"
         d="m 2582.6266,2727.4534 c -37.1067,-1.7334 -75.72,-5.44 -116.8,-11.5067 -72.6,-10.76 -200.64,-44.0533 -280.6533,-84.6133 113.04,-15 206.96,-35.2667 368.76,-37.16 l 28.6933,133.28"
         style="fill:#f9b2b2;fill-opacity:1;fill-rule:nonzero;stroke:none;stroke-width:0.133333" />
      <path
         id="path17"
         d="m 3264.0133,2654.12 c -208.4134,20.4934 -350.72,51.7467 -487.28,66.3734 l -41.8134,-34.44 c 171.2667,-2.9734 359.0934,-35.6934 529.0934,-31.9334"
         style="fill:#b25b36;fill-opacity:1;fill-rule:nonzero;stroke:none;stroke-width:0.133333" />
      <path
         id="path18"
         d="m 3001.0933,2688.3067 c -196.9334,30.4667 -336.9334,57.0667 -535.2667,27.64 -36.0667,-5.3333 -85.76,-16.2533 -136.5067,-30.88 30.5734,-45.2667 79.5334,-100.8667 146.96,-126.5333 123.5467,-47.0267 492.9867,75.7866 492.9867,75.7866 10.5467,16.9334 21.16,34.96 31.8267,53.9867"
         style="fill:#b25b36;fill-opacity:1;fill-rule:nonzero;stroke:none;stroke-width:0.133333" />
      <path
         id="path19"
         d="m 2258.7466,2825.52 42.0667,298.92 c -150.7067,53.2134 -317.5867,103.3734 -483.4933,99.8 -122.0534,-24.5466 -226.4934,-77.92 -248.2667,-174.56 -33.0933,-146.8133 35.6,-183.0533 7.8933,-227.0266 110.1467,1.92 281.4,-14.36 361.24,-10.04 5.76,67.4933 30.1334,128.0666 80.4133,132.1866 115.4,9.4667 240.1467,-119.28 240.1467,-119.28"
         style="fill:#f9b2b2;fill-opacity:1;fill-rule:nonzero;stroke:none;stroke-width:0.133333" />
      <path
         id="path20"
         d="m 1832.8666,3243.8134 c -31.4533,0 -62.8666,-1.84 -94.12,-5.84 -44.3733,-4.4667 -156.6533,-24.8134 -229.56,-115.6 -53.44,-66.5467 -74.08,-155.3067 -61.3466,-263.8267 27.9733,-193.56 128.4666,-287.64 132.7333,-291.56 4.44,-4.08 10.5467,-5.8667 16.48,-4.8133 l 376.36,65.64 c 118.8,-1.92 201.92,-14.2534 282.3466,-26.2 83.96,-12.4667 170.7734,-25.36 297.96,-26.8667 l 0.4534,38.8933 c -124.5334,1.48 -210.0267,14.1734 -292.7067,26.4534 -82.0667,12.1866 -166.9467,24.7866 -289.2933,26.64 -1.2533,0.04 -2.44,-0.08 -3.6267,-0.2934 l -368.08,-64.2 C 1578.8,2625.7867 1508.24,2712.48 1486.4,2863.6 c -11.4,97.2667 6.44,176.3067 53.1066,234.4267 63.6934,79.3067 163.6534,97.2667 203.6667,101.3067 219.6933,28.1066 443.0933,-53.4134 640.2,-125.3467 93.92,-34.28 182.64,-66.6533 256.9733,-80.7067 l 7.2267,38.2134 c -71.2134,13.4666 -158.48,45.3066 -250.8667,79.04 -165.16,60.2666 -365.1867,133.28 -563.84,133.28"
         style="fill:#650000;fill-opacity:1;fill-rule:nonzero;stroke:none;stroke-width:0.133333" />
      <path
         id="path21"
         d="m 1971.4666,2855.52 c 27.0534,49.84 22.6934,111.9734 -2.8533,161.2534 -6.7467,12.5333 -15.3067,25.5066 -23.72,36.8266 3.36,-7.6 6.9867,-14.9866 10.0267,-22.5733 14.1466,-36.3867 18.52,-78.5467 5.5866,-115.68 -4.6266,-13.4933 -10.88,-26.76 -19.96,-37.6 -10.8266,-4.2533 -16.1333,-16.48 -11.8666,-27.2933 5.68,-15.8667 28.96,-17.8534 37.3866,-3.4934 l 5.4,8.56"
         style="fill:#650000;fill-opacity:1;fill-rule:nonzero;stroke:none;stroke-width:0.133333" />
      <path
         id="path22"
         d="m 3166.5199,3919.36 c -96.84,154.9067 -295.4933,248.92 -461.84,280.5867 -28.8533,5.4933 -56.7066,9.0933 -82.9333,10.8266 -145.5067,6.32 -381.5733,-158.56 -507.7333,-273.1733 -46.0934,-41.8667 -77.4934,-77.04 -84.4534,-94.6533 -119.2533,-302.7467 10.6667,-576.3867 134.68,-819.7733 48.1867,-94.6 95.48,-184.5867 126.9467,-269.9867 0,0 61.5067,-147.64 185.1067,-194.68 123.5466,-47.0267 492.9866,75.7867 492.9866,75.7867 109.7467,176.2266 227.2934,469.1066 267.0134,748.2266 28.8933,202.9867 16.6133,398.6533 -69.7734,536.84"
         style="fill:#f9c9ca;fill-opacity:1;fill-rule:nonzero;stroke:none;stroke-width:0.133333" />
      <path
         id="path23"
         d="m 3001.0933,2688.3067 c -196.9334,30.4667 -336.9334,57.0667 -535.2667,27.64 -36.0667,-5.3333 -85.76,-16.2533 -136.5067,-30.88 30.5734,-45.2667 79.5334,-100.8667 146.96,-126.5333 123.5467,-47.0267 492.9867,75.7866 492.9867,75.7866 10.5467,16.9334 21.16,34.96 31.8267,53.9867"
         style="fill:#f9b2b2;fill-opacity:1;fill-rule:nonzero;stroke:none;stroke-width:0.133333" />
      <path
         id="path24"
         d="m 3166.5333,3919.3733 c -96.84,154.9067 -295.4934,248.92 -461.84,280.6 -2.5067,-77.9333 -28.56,-201.2266 -28.56,-201.2266 0,0 -182.4267,-345.9867 30.0666,-877.92 72.5334,-185.12 483.5867,249.2266 530.1067,261.72 28.8933,202.9866 16.6133,398.6533 -69.7733,536.8266"
         style="fill:#f9b2b2;fill-opacity:1;fill-rule:nonzero;stroke:none;stroke-width:0.133333" />
      <path
         id="path25"
         d="m 2509.3066,3769.8133 c -24.6133,89.4134 -57.6533,156.5734 -134.0533,169.32 -97.2534,16.2 -185.2134,14.3734 -261.2534,-1.5066 -46.0933,-41.8667 -77.5066,-77.04 -84.4533,-94.6534 -31.16,-79.12 -45.3733,-156.32 -47.04,-231.4666 105.6267,59.9466 225.88,28.8 406.6,9.6666 79.8,-8.4666 110.64,66.12 120.2,148.64"
         style="fill:#ffb6b8;fill-opacity:1;fill-rule:nonzero;stroke:none;stroke-width:0.133333" />
      <path
         id="path26"
         d="m 2291.1999,2753.2 c -48,153.68 -130.3333,294.92 -191.8,442.76 -87.3333,201.7733 -135.9066,416.8 -53.5866,628.5733 l 2.5733,6.84 1.2933,3.4267 c 5.76,11.8533 15.3867,22.52 24.56,33.0267 52.9334,57.3333 115.7734,108.2133 178.84,154.8666 95.4,67.9734 197.0934,134.7867 311.3334,162.1467 95.9866,20.9067 248.7733,-28.2 337.08,-69.4133 105.3333,-49.9734 202.9866,-123.0934 259.9333,-225.8534 124.5333,-235.6266 59.5333,-564.9066 -15.1467,-809.2133 -48.2666,-151.4266 -110.4666,-300.28 -193.4933,-435.7733 l 33.0133,-20.56 c 85.2134,139.12 148.1334,289.76 197.5734,444.6533 78,255.6667 143.12,592.1067 12.1066,839.72 -60.8266,110.0133 -165.9466,189.6133 -277.0666,242.7067 -96.7467,45.44 -256.48,96.4266 -362.4267,73.8666 -121.72,-28.1866 -228.3467,-96.72 -328.2933,-167.52 -66.1467,-48.9466 -129.2934,-99.7733 -185.6934,-160.6666 -14.8933,-16.6134 -29.9466,-34.5867 -36.8266,-57 -85,-217.56 -34.7333,-453.7867 63.24,-657.6133 67.9066,-147.04 156.68,-281.4267 222.7866,-428.9734"
         style="fill:#650000;fill-opacity:1;fill-rule:nonzero;stroke:none;stroke-width:0.133333" />
      <path
         id="path27"
         d="m 2548.5866,3606.3733 c -92.1067,6.5334 -330.92,19.9334 -483.68,142.5867 -148.68,119.3867 -270.8533,343.4533 -270.8533,343.4533 -113.84,22.88 -156.9467,86.1067 -174.2267,118.5734 -15.8666,29.7866 -43.32,129.44 42.7867,181.9466 311.1733,213.5734 419.96,158.76 479.8533,105.1334 63.48,-46.0267 134.8,-163.0667 204.92,-218.8134 96.8667,-77.0266 237.08,-40.6133 424.9333,-94.7733"
         style="fill:#ffffff;fill-opacity:1;fill-rule:nonzero;stroke:none;stroke-width:0.133333" />
      <path
         id="path28"
         d="m 2772.3066,4184.4933 c -187.8267,54.1467 -328.0267,17.7467 -424.9067,94.7334 -70.16,55.76 -141.4666,172.8133 -204.9466,218.8533 -59.8667,53.6133 -168.6667,108.44 -479.84,-105.1733 -86.1067,-52.4534 -58.6533,-152.12 -42.7867,-181.9467 1.4134,-2.6267 2.9867,-5.5067 4.7734,-8.5067 20,-33.9733 64.9066,-89.0533 169.4533,-110.0533 0,0 122.1867,-224.0667 270.84,-343.4133 152.76,-122.6667 391.5733,-136.0534 483.6666,-142.6267 l 164.6267,425.3867 59.12,152.7466"
         style="fill:#ffffff;fill-opacity:1;fill-rule:nonzero;stroke:none;stroke-width:0.133333" />
      <path
         id="path29"
         d="m 2772.3066,4184.4933 c -187.8267,54.1467 -328.0267,17.7467 -424.9067,94.7334 -49.04,39.0133 -98.6666,107.96 -145.7733,161.6266 -20.2667,23.1067 -40.0667,43.4267 -59.1733,57.2267 -59.8667,53.6133 -168.6667,108.44 -479.84,-105.1733 -86.1067,-52.4534 -58.6533,-152.12 -42.7867,-181.9467 1.4134,-2.6267 2.9867,-5.5067 4.7734,-8.5067 17.96,-30.5066 55.9733,-77.9733 139.1466,-102.5466 9.5067,-2.84 19.5867,-5.36 30.3067,-7.5067 0,0 122.1867,-224.0667 270.84,-343.4133 152.76,-122.6667 391.5733,-136.0534 483.6666,-142.6267 l 164.6267,425.3867 59.12,152.7466"
         style="fill:#f9c9ca;fill-opacity:1;fill-rule:nonzero;stroke:none;stroke-width:0.133333" />
      <path
         id="path30"
         d="m 2772.3066,4184.4933 c -187.8267,54.1467 -328.0267,17.7467 -424.9067,94.7334 -70.16,55.76 -141.4666,172.8133 -204.9466,218.8533 -59.8667,53.6133 -168.6667,108.44 -479.84,-105.1733 -86.1067,-52.4534 -58.6533,-152.12 -42.7867,-181.9467 1.4134,-2.6267 2.9867,-5.5067 4.7734,-8.5067 -0.8934,22.16 9.0266,56.9734 35.5466,78.08 109.7467,91.48 290.0667,185.5734 398.08,141.1467 173.9067,-71.56 149.3333,-232.1467 289.1733,-294.4133 76.7734,-34.2267 226.92,-58.96 250.88,-176.8134 12.4934,-61.5066 -75,-225.3066 -41.3733,-322.5333 l 215.4,556.5733"
         style="fill:#f9b2b2;fill-opacity:1;fill-rule:nonzero;stroke:none;stroke-width:0.133333" />
      <path
         id="path31"
         d="m 2201.6266,4440.8533 c -20.2667,23.1067 -40.0667,43.4267 -59.1733,57.2267 -59.8667,53.6133 -168.6667,108.44 -479.84,-105.1733 -86.1067,-52.4534 -58.6533,-152.12 -42.7867,-181.9467 1.4134,-2.6267 2.9867,-5.5067 4.7734,-8.5067 -0.8934,22.16 9.0266,56.9734 35.5466,78.08 109.7467,91.48 290.0667,185.5734 398.08,141.1467 21.4267,-8.8133 39.8533,-18.9467 55.92,-30.1867 30.6133,29.3467 57.2933,44.0534 87.48,49.36"
         style="fill:#595959;fill-opacity:1;fill-rule:nonzero;stroke:none;stroke-width:0.133333" />
      <path
         id="path32"
         d="m 2201.6266,4440.8533 c -20.2667,23.1067 -40.0667,43.4267 -59.1733,57.2267 -59.8667,53.6133 -168.6667,108.44 -479.84,-105.1733 -86.1067,-52.4534 -58.6533,-152.12 -42.7867,-181.9467 1.4134,-2.6267 2.9867,-5.5067 4.7734,-8.5067 17.96,-30.5066 55.9733,-77.9733 139.1466,-102.5466 79.1867,16.2266 168.56,58.3866 255.1467,176.4266 81.6,111.2667 125.92,154.5467 182.7333,164.52"
         style="fill:#f9c9ca;fill-opacity:1;fill-rule:nonzero;stroke:none;stroke-width:0.133333" />
      <path
         id="path33"
         d="m 2201.6266,4440.8533 c -20.2667,23.1067 -40.0667,43.4267 -59.1733,57.2267 -59.8667,53.6133 -168.6667,108.44 -479.84,-105.1733 -86.1067,-52.4534 -58.6533,-152.12 -42.7867,-181.9467 1.4134,-2.6267 2.9867,-5.5067 4.7734,-8.5067 -0.8934,22.16 9.0266,56.9734 35.5466,78.08 109.7467,91.48 290.0667,185.5734 398.08,141.1467 21.4267,-8.8133 39.8533,-18.9467 55.92,-30.1867 30.6133,29.3467 57.2933,44.0534 87.48,49.36"
         style="fill:#f9b2b2;fill-opacity:1;fill-rule:nonzero;stroke:none;stroke-width:0.133333" />
      <path
         id="path34"
         d="m 2548.5866,3606.3733 c -189.7733,25.8534 -395.6533,64.3067 -529.28,213.5734 -82.4,86.9066 -151.12,187.4933 -212.9733,289.7066 -56.6533,10.64 -113.4933,34.4 -149.7333,80.6267 -44.4667,51.6933 -50.8267,143.6267 11.0933,182.7467 100.6933,66.8266 242.64,160.56 366.4133,153.44 36.76,-2.8534 68.92,-18.3067 96.04,-43.48 46.6667,-35.5867 83.36,-87.96 122.3333,-133.3334 76.9334,-92.5466 121,-128.04 243.5067,-142.56 91.2667,-10.16 183.3867,-15.1333 270.9467,-41.3066 l 10.7733,37.3733 c -90.4933,27.0267 -184.5067,32.3467 -276.8667,42.52 -113.44,13.36 -147.6266,44.3467 -218.5466,128.96 -55.7067,65.7733 -104.9867,136.3067 -181.04,174.24 -139.52,61.6133 -328.4933,-59.8267 -442.76,-135.28 -23.5733,-14.5333 -45.72,-33.2 -58.8267,-58.9733 -26.0266,-50.8 -19.6266,-113.64 8.08,-161.84 37.8134,-66.2 109.5467,-105.32 182.48,-119.44 l -13.24,9.76 c 18.8267,-36.1734 39.4267,-70.2267 61.2934,-104.04 67.24,-100.9067 142.8266,-199.1334 244.6133,-268.0534 139.2266,-87.7333 305.9333,-105.92 465.6933,-104.64"
         style="fill:#650000;fill-opacity:1;fill-rule:nonzero;stroke:none;stroke-width:0.133333" />
      <path
         id="path35"
         d="m 1789.1733,4165.1733 c -26.5867,9.32 -47.4533,29.6667 -64.9333,50.9334 -40.8934,49.3066 -62.5334,127.5866 -15.1067,178.3866 8.3867,9.2134 18.16,17.24 28.5867,24.52 l -23.6667,30.8534 c -51.1333,-42.0534 -71.5333,-106.7734 -45.7467,-168.0267 21.2267,-50.9067 66.8267,-102.3733 120.8667,-116.6667"
         style="fill:#650000;fill-opacity:1;fill-rule:nonzero;stroke:none;stroke-width:0.133333" />
      <path
         id="path36"
         d="m 3771.3199,3506.7067 c 0,184.4533 -517.16,615.52 -517.16,615.52 h -98.36 c -339.9466,0 -615.52,-275.5867 -615.52,-615.52 0,-339.9467 275.5734,-615.52 615.52,-615.52 165.7867,0 83.7867,0 83.7867,0 0,0 531.7333,441.36 531.7333,615.52"
         style="fill:#ffb42e;fill-opacity:1;fill-rule:nonzero;stroke:none;stroke-width:0.133333" />
      <path
         id="path37"
         d="m 3155.7999,2910.6267 c -328.68,0 -596.08,267.4 -596.08,596.08 0,328.6666 267.4,596.0666 596.08,596.0666 h 91.3067 c 145.6,-122.16 504.7733,-454.0533 504.7733,-596.0666 0,-133.72 -369.6667,-471.1333 -519.32,-596.08 h -76.76 m 105.4,1231.04 h -105.4 c -350.1333,0 -634.9733,-284.84 -634.9733,-634.96 0,-350.1333 284.84,-634.9733 634.9733,-634.9733 h 104.0667 v 11.08 c 30.5867,25.8 145.6,124.0266 259.3066,237.0266 180.2134,179.1067 271.6,309.2667 271.6,386.8667 0,191.36 -502.7599,612.6133 -524.1599,630.4533 l -5.4134,4.5067"
         style="fill:#650000;fill-opacity:1;fill-rule:nonzero;stroke:none;stroke-width:0.133333" />
      <path
         id="path38"
         d="m 3869.6799,3506.7067 c 0,339.9333 -275.5733,615.52 -615.52,615.52 -339.9466,0 -615.52,-275.5867 -615.52,-615.52 0,-339.9467 275.5734,-615.52 615.52,-615.52 339.9467,0 615.52,275.5733 615.52,615.52"
         style="fill:#ffd62c;fill-opacity:1;fill-rule:nonzero;stroke:none;stroke-width:0.133333" />
      <path
         id="path39"
         d="m 3869.6532,3506.72 c 0,339.8933 -275.52,615.48 -615.4799,615.48 -237.4534,0 -443.5067,-134.4267 -546.1334,-331.3867 110.4134,164.84 298.3467,273.3067 511.6667,273.3067 339.9466,0 615.5333,-275.5867 615.5333,-615.5467 0,-102.24 -24.92,-198.7333 -69.1333,-283.5733 65.4133,97.7334 103.5466,215.28 103.5466,341.72"
         style="fill:#ffb42e;fill-opacity:1;fill-rule:nonzero;stroke:none;stroke-width:0.133333" />
      <path
         id="path40"
         d="m 2659.2266,3543.88 c -0.76,-12.2933 -1.1467,-24.7067 -1.1467,-37.1733 0,-301.2133 224.5867,-550.96 515.1067,-590.6 4.5867,1.68 9.0533,3.4267 13.3867,5.2267 0.053,0.027 0.093,0.04 0.1333,0.067 0.067,0.013 0.093,0.027 0.1467,0.053 44.1466,18.44 75.1333,43.2266 96.6666,72.12 -10.56,1.9466 -21.92,3.2533 -33.7866,3.7733 -3.68,0.16 -7.32,0.24 -10.9067,0.24 -52.0133,0 -93.1733,-16.0533 -94.0933,-37.6533 v -0.2 c -272.0534,58.3333 -477.4,296.6133 -485.5067,584.1466"
         style="fill:#fff3bf;fill-opacity:1;fill-rule:nonzero;stroke:none;stroke-width:0.133333" />
      <path
         id="path41"
         d="m 3254.1599,2910.6267 c -328.68,0 -596.08,267.4 -596.08,596.08 0,328.6666 267.4,596.0666 596.08,596.0666 328.68,0 596.08,-267.4 596.08,-596.0666 0,-328.68 -267.4,-596.08 -596.08,-596.08 m 0,1231.04 c -350.12,0 -634.9733,-284.84 -634.9733,-634.96 0,-350.1333 284.8533,-634.9733 634.9733,-634.9733 350.12,0 634.9733,284.84 634.9733,634.9733 0,350.12 -284.8533,634.96 -634.9733,634.96"
         style="fill:#650000;fill-opacity:1;fill-rule:nonzero;stroke:none;stroke-width:0.133333" />
      <path
         id="path42"
         d="m 3716.8266,3506.7067 c 0,255.52 -207.1467,462.6666 -462.6667,462.6666 -255.5333,0 -462.6666,-207.1466 -462.6666,-462.6666 0,-255.5333 207.1333,-462.68 462.6666,-462.68 255.52,0 462.6667,207.1467 462.6667,462.68"
         style="fill:#ff9c43;fill-opacity:1;fill-rule:nonzero;stroke:none;stroke-width:0.133333" />
      <path
         id="path43"
         d="m 3716.8266,3506.7067 c 0,255.52 -207.1467,462.6666 -462.6667,462.6666 -255.5333,0 -462.6666,-207.1466 -462.6666,-462.6666 0,-255.5333 207.1333,-462.68 462.6666,-462.68 255.52,0 462.6667,207.1467 462.6667,462.68"
         style="fill:#ff9c43;fill-opacity:1;fill-rule:nonzero;stroke:none;stroke-width:0.133333" />
      <path
         id="path44"
         d="m 3716.8399,3506.72 c 0,255.5067 -207.16,462.68 -462.6666,462.68 -209.12,0 -385.7467,-138.68 -443.04,-329.0933 69.4,167.7866 234.7066,285.8533 427.6,285.8533 255.5733,0 462.6799,-207.16 462.6799,-462.6667 0,-46.4533 -6.8133,-91.2533 -19.56,-133.5199 22.56,54.4266 34.9867,114.1466 34.9867,176.7466"
         style="fill:#ff7a45;fill-opacity:1;fill-rule:nonzero;stroke:none;stroke-width:0.133333" />
      <path
         id="path45"
         d="m 2791.4933,3506.7067 c 0,-255.5067 207.16,-462.68 462.6666,-462.68 209.12,0 385.7467,138.68 443.04,329.1066 -69.4,-167.7866 -234.6933,-285.8666 -427.6,-285.8666 -255.5733,0 -462.68,207.1733 -462.68,462.68 0,46.44 6.8134,91.24 19.56,133.5066 -22.56,-54.4266 -34.9866,-114.1466 -34.9866,-176.7466"
         style="fill:#ff7a45;fill-opacity:1;fill-rule:nonzero;stroke:none;stroke-width:0.133333" />
      <path
         id="path46"
         d="m 3321.4799,3402.7467 c 0,-22.1867 -25.8933,-40.68 -65.84,-40.68 -52.5333,0 -99.1466,45.8666 -104.32,51.7866 l -58.4533,-59.2 c 5.1733,-5.1733 55.4933,-55.4799 119.8533,-72.5066 v -75.4533 h 82.8667 v 73.9866 c 63.6266,14.0534 110.24,61.4 110.24,122.8133 0,127.2534 -219,139.8267 -219,206.4267 0,22.1867 25.8933,42.16 65.8533,42.16 53.2667,0 99.1467,-48.0933 103.5867,-53.2667 L 3415.4532,3658 c -5.1866,5.1733 -55.4933,56.2267 -119.8666,73.2533 v 75.4667 h -82.8667 v -73.9867 c -63.6266,-14.8 -110.9733,-62.1466 -110.9733,-123.56 0,-127.2533 219.7333,-139.84 219.7333,-206.4266"
         style="fill:#ffd62c;fill-opacity:1;fill-rule:nonzero;stroke:none;stroke-width:0.133333" />
      <path
         id="path47"
         d="m 2231.6666,692.52008 c 39.6,68.93333 52.44,166.64 52.44,166.64 l -267.96,255.25332 -150.7066,-303.39999 166.0399,-197.15999 200.1867,78.66666"
         style="fill:#f9c9ca;fill-opacity:1;fill-rule:nonzero;stroke:none;stroke-width:0.133333" />
      <path
         id="path48"
         d="m 2284.1066,859.13341 -267.9333,255.25329 -4.9467,-9.92 -145.7866,-293.47995 116.36,-138.17333 49.6933,-59 200.1466,78.70666 c 39.6,68.92 52.4667,166.61333 52.4667,166.61333"
         style="fill:#f9c9ca;fill-opacity:1;fill-rule:nonzero;stroke:none;stroke-width:0.133333" />
      <path
         id="path49"
         d="m 2213.1466,912.13341 -201.92,192.33329 -145.7866,-293.47995 116.36,-138.17333 182.3599,51.68 c 54.88,74.89333 48.9867,187.63999 48.9867,187.63999"
         style="fill:#f9b2b2;fill-opacity:1;fill-rule:nonzero;stroke:none;stroke-width:0.133333" />
      <path
         id="path50"
         d="m 2016.1466,1133.8667 c -1.12,0 -2.24,-0.093 -3.3733,-0.2933 -6.08,-1.0667 -11.2934,-4.9733 -14.04,-10.5067 l -150.72,-303.39995 c -3.44,-6.93334 -2.44,-15.25334 2.5467,-21.17334 l 166.0399,-197.17333 29.76,25.05334 -157.8399,187.41333 133.3066,268.35995 241.5067,-230.06662 c -4.2934,-25.66667 -18.3734,-97.38667 -48.5334,-149.86666 l 33.7334,-19.38667 c 41.04,71.45333 54.3066,169.65333 54.8533,173.78666 0.8133,6.16 -1.3733,12.34667 -5.8667,16.62667 l -267.96,255.26662 c -3.6533,3.4667 -8.4533,5.36 -13.4133,5.36"
         style="fill:#650000;fill-opacity:1;fill-rule:nonzero;stroke:none;stroke-width:0.133333" />
      <path
         id="path51"
         d="m 2769.7066,2677.32 c 740.0533,56.3867 971.48,-234.4533 992.0133,-703.1733 77.3867,-523.3733 -52.7733,-801.6666 -159.2933,-910 -378.9867,-326.95995 -1012.36,-384.43995 -1303.56,-324.15995 -146.12,32.69333 -604.6666,160.58666 -687.1066,887.51995 -188.32,500.7333 0.9333,881.4133 789.2666,1007.7867 l 368.68,42.0266"
         style="fill:#f9c9ca;fill-opacity:1;fill-rule:nonzero;stroke:none;stroke-width:0.133333" />
      <path
         id="path52"
         d="m 2769.7066,2677.32 c 740.0533,56.3867 971.48,-234.4533 992.0133,-703.1733 77.3867,-523.3733 -52.7733,-801.6666 -159.2933,-910 -378.9867,-326.95995 -1012.36,-384.43995 -1303.56,-324.15995 -146.12,32.69333 -604.6666,160.58666 -687.1066,887.51995 -188.32,500.7333 0.9333,881.4133 789.2666,1007.7867 l 368.68,42.0266"
         style="fill:#f9c9ca;fill-opacity:1;fill-rule:nonzero;stroke:none;stroke-width:0.133333" />
      <path
         id="path53"
         d="m 3575.4399,2486.7334 c -149.2667,148.68 -401.6533,221.3466 -805.72,190.5733 l -368.72,-41.9867 C 1996.4,2570.4134 1749.56,2438.5467 1630.7333,2257.8534 c -112.8667,-171.3734 -110.6,-386.64 -18.96,-630.36 82.4133,-726.94666 540.9866,-854.81332 687.0666,-887.53332 291.1867,-60.29333 924.6267,-2.74667 1303.5867,324.20002 106.52,108.3333 236.6933,386.6 159.32,909.9733 -9.36,212.8133 -62.12,389 -186.3067,512.6"
         style="fill:#f9c9ca;fill-opacity:1;fill-rule:nonzero;stroke:none;stroke-width:0.133333" />
      <path
         id="path54"
         d="m 3575.4399,2486.7334 c -149.2667,148.68 -401.6533,221.3466 -805.72,190.5733 l -368.72,-41.9867 C 1996.4,2570.4134 1749.56,2438.5467 1630.7333,2257.8534 c -112.8667,-171.3734 -110.6,-386.64 -18.96,-630.36 82.4133,-726.94666 540.9866,-854.81332 687.0666,-887.53332 251.24,-52.02666 757.3334,-16.29333 1134.88,204.57333 59.9867,35.04 116.72,74.78669 168.7067,119.62669 36.12,36.7866 74.9866,93.0533 107.56,171.9066 63.4266,153.4534 102.88,392.2534 51.76,738.0667 -9.36,212.8133 -62.12,389 -186.3067,512.6"
         style="fill:#f9c9ca;fill-opacity:1;fill-rule:nonzero;stroke:none;stroke-width:0.133333" />
      <path
         id="path55"
         d="m 3575.4399,2486.7334 c -149.2667,148.68 -401.6533,221.3466 -805.72,190.5733 l -368.72,-41.9867 C 1996.4,2570.4134 1749.56,2438.5467 1630.7333,2257.8534 c -112.8667,-171.3734 -110.6,-386.64 -18.96,-630.36 23.2133,-204.9333 76.3733,-362.2533 143.9333,-483.2533 118.6667,-212.37336 281.8,-312.82669 406.1333,-362.42669 l 0.1467,-0.12 c 56.0667,-22.41333 104.2667,-34.41333 136.8533,-41.73333 251.24,-52.02666 757.3334,-16.29333 1134.88,204.57333 59.9867,35.04 116.72,74.78669 168.7067,119.62669 36.12,36.7866 74.9866,93.0533 107.56,171.9066 63.4266,153.4534 102.88,392.2534 51.76,738.0667 -9.36,212.8133 -62.12,389 -186.3067,512.6"
         style="fill:#f9c9ca;fill-opacity:1;fill-rule:nonzero;stroke:none;stroke-width:0.133333" />
      <path
         id="path56"
         d="m 2161.8399,781.81341 c -169.3066,94.62667 -196.3999,409.39999 -335.7733,404.11999 -34.12,-1.2667 -56.3333,-17.52 -70.36,-41.6933 118.6667,-212.37336 281.8,-312.82669 406.1333,-362.42669"
         style="fill:#f9b2b2;fill-opacity:1;fill-rule:nonzero;stroke:none;stroke-width:0.133333" />
      <path
         id="path57"
         d="m 3709.9866,1236.0667 c -4.0267,6.1734 -8.4134,12.04 -13.0934,17.48 -55.3866,64.5067 -257.9066,184.9867 -341.2666,129.8667 -77.1733,-51.1067 -56.1067,-171.68 -46.04,-201.2133 l -21.32,-89.88 145.4533,-147.78669 c 59.9867,35.04 116.72,74.78669 168.7067,119.62669 36.12,36.7866 74.9866,93.0533 107.56,171.9066"
         style="fill:#f9b2b2;fill-opacity:1;fill-rule:nonzero;stroke:none;stroke-width:0.133333" />
      <path
         id="path58"
         d="m 3575.4399,2486.7334 c -149.2667,148.68 -401.6533,221.3466 -805.72,190.5733 l -368.72,-41.9867 C 1996.4,2570.4134 1749.56,2438.5467 1630.7333,2257.8534 c 218.96,267.3733 1259.7733,515.1466 1944.7066,228.88"
         style="fill:#f9b2b2;fill-opacity:1;fill-rule:nonzero;stroke:none;stroke-width:0.133333" />
      <path
         id="path59"
         d="m 3714.7866,2181.28 c -19.7734,174.6134 -177.36,300.1467 -351.9867,280.36 -174.6133,-19.7733 -300.1333,-177.36 -280.36,-351.9866 19.7734,-174.6133 177.3734,-300.1333 351.9867,-280.36 174.6133,19.7733 300.1466,177.3733 280.36,351.9866"
         style="fill:#ff6982;fill-opacity:1;fill-rule:nonzero;stroke:none;stroke-width:0.133333" />
      <path
         id="path60"
         d="m 1815.9066,1957.4267 c -13.9466,122.8267 -96.0666,221.4133 -204.3733,262.1467 -94.68,-167.1467 -83.36,-369.7333 0.2533,-592.08 l 0.4267,-3.64 c 133.1333,50.1733 220.4533,185.7467 203.6933,333.5733"
         style="fill:#ff6982;fill-opacity:1;fill-rule:nonzero;stroke:none;stroke-width:0.133333" />
      <path
         id="path61"
         d="m 2769.7066,2677.32 c 328.5467,3.0134 751.88,-22.4133 900.8933,-368.44 46.32,-104.92 65.2667,-221.4 71.0133,-337.7066 10.5467,-77.9333 20.2,-156.16 22.2667,-234.6667 3.3867,-56.48 0.8267,-119.6533 -2.44,-176.2933 -14.9867,-170.6933 -53.7733,-353.2533 -172.88,-482.4267 -155.2133,-133.03996 -363.2266,-226.06662 -566.7066,-277.27995 -239.6267,-59.66667 -550.28,-93.92 -789.0267,-23.08 -323.56,97.39999 -510.5333,374.65335 -575.6666,694.70665 -12.4534,53.4133 -18.3334,108.24 -26.6534,162.4267 -54.08,145.36 -85.2533,305.6133 -48.72,458.3066 89.4267,352.48 504.8667,472.4133 819.24,542.44 -327.7733,-36.2933 -747.72,-154.7333 -854.0933,-508.12 -50.96,-162.0133 -10.2933,-366.6666 44.92,-501.9466 47.5333,-429.7067 258.92,-811.32002 709.6666,-905.53335 335.7734,-56.70667 730.12,10.06667 1037.6533,153.01333 99.0667,47.04 193.2934,105.76 277.0267,177.70662 29.4933,29.9734 52.96,64.24 73.2933,99.8134 136.48,250.0133 128.4934,552.4133 92.36,826.88 -11.3333,349.0933 -155.44,616.1999 -525.2266,693.3999 -159.5867,34.04 -326.0533,29.0934 -486.92,6.8"
         style="fill:#650000;fill-opacity:1;fill-rule:nonzero;stroke:none;stroke-width:0.133333" />
      <path
         id="path62"
         d="m 2112.8533,748.80008 c -136.5733,23.09333 -261.36,430.68002 -404.8667,365.81332 -115.68,-52.28 -126.64,-286.54665 -41.1733,-416.33332 78.12,-118.63999 202.2933,-88.56 221.2133,-86.42666 29.9334,-11.38667 226.56,-106.76 343.64,80.66666"
         style="fill:#f9c9ca;fill-opacity:1;fill-rule:nonzero;stroke:none;stroke-width:0.133333" />
      <path
         id="path63"
         d="m 2231.6399,692.52008 -67.48,31.97334 -51.32,24.31999 c -136.5333,23.09334 -261.3466,430.63999 -404.8533,365.79999 -73.1733,-33.08 -104.4933,-139.13332 -95.8666,-245.45332 4.9866,-61.57333 23.3466,-123.25333 54.7066,-170.90666 78.0934,-118.62667 202.24,-88.53334 221.2134,-86.42667 29.9066,-11.4 226.5733,-106.69333 343.5999,80.69333"
         style="fill:#f9c9ca;fill-opacity:1;fill-rule:nonzero;stroke:none;stroke-width:0.133333" />
      <path
         id="path64"
         d="m 2164.1599,724.49342 -51.32,24.31999 c -136.5333,23.09334 -261.3466,430.63999 -404.8533,365.79999 -73.1733,-33.08 -104.4933,-139.13332 -95.8666,-245.45332 8.0933,57.94666 35.44,188.00002 116.5333,187.13332 124.08,-1.2933 213.72,-271.98665 306.56,-337.73332 59.6933,-42.22666 103.2,-19.68 128.9466,5.93334"
         style="fill:#f9b2b2;fill-opacity:1;fill-rule:nonzero;stroke:none;stroke-width:0.133333" />
      <path
         id="path65"
         d="m 2112.8533,748.80008 c -49.9467,19.04 -79.1734,68.46667 -108.5734,110.49333 -44.3733,66.6 -84.5599,138.17333 -135.8399,201.29329 -37.72,47.7867 -102.3734,104.9067 -168.5467,74.08 C 1618.9866,1097.3334 1593.2,999.64008 1590.72,918.26674 1586.2933,743.24008 1679.4666,557.82675 1881,591.14675 l 9.2133,1.38667 -9.1067,1.14667 c 62.64,-26.78667 131.8133,-44.02667 200.5733,-31.38667 70.1334,11.58667 130.6134,60.4 166.48,119.92 l -32.9866,20.61333 c -16.28,-25.97333 -36.12,-49.36 -59.9467,-67.12 -75.3867,-58.26666 -178.4666,-42.17333 -260.2666,-5.68 -6.2134,2.76 -14.2134,0.2 -19.8,-0.44 l -9.4267,-1.30667 c -169.16,-23.81333 -239.92,144.48 -234.5333,288.58666 2.24,48.96 13.2266,101.01336 41.68,140.62666 27.56,37.72 67.2933,57.7867 109.0266,26.8 105.0667,-70.8 203.28,-323.63999 330.9467,-335.49332"
         style="fill:#650000;fill-opacity:1;fill-rule:nonzero;stroke:none;stroke-width:0.133333" />
      <path
         id="path66"
         d="m 3630.6399,1168.2267 c -121.2267,60.8 -256.8267,168.0134 -347.84,116.2667 -127.52,-72.4933 -65.8133,-460.70665 60.5467,-527.71999 116.16,-61.61333 216.6133,27.65334 245.96,111.21333 0,0 151.7466,21.64 199.32,128.78667 42.0666,85.03999 -22.1734,200.97329 -102.0267,265.47999 l -55.96,-94.0267"
         style="fill:#f9c9ca;fill-opacity:1;fill-rule:nonzero;stroke:none;stroke-width:0.133333" />
      <path
         id="path67"
         d="m 3794.8932,1104.7334 c -16.32,59.24 -59.36,118.08 -108.2933,157.5333 l -55.92,-94.0266 c -121.2933,60.7733 -256.8533,167.9866 -347.8666,116.2533 -52.4667,-29.84 -72.96,-113.1733 -69.9867,-205.5733 4.2,-132.04002 56.1733,-282.70669 130.52,-322.13335 116.1466,-61.64 216.5866,27.62666 245.9733,111.19999 0,0 151.76,21.65334 199.28,128.81334 16.28,32.89332 16.6133,70.50662 6.2933,107.93332"
         style="fill:#f9c9ca;fill-opacity:1;fill-rule:nonzero;stroke:none;stroke-width:0.133333" />
      <path
         id="path68"
         d="m 3794.8932,1104.7334 c -16.32,59.24 -59.36,118.08 -108.2933,157.5333 l -55.92,-94.0266 c -121.2933,60.7733 -256.8533,167.9866 -347.8666,116.2533 -52.4667,-29.84 -72.96,-113.1733 -69.9867,-205.5733 7.7867,55.8933 31.4267,142.16 103.36,154.4666 115.1466,19.76 272.7066,-97.2266 356.1066,-134.84 66.0134,-29.7866 116.6134,-39.9466 122.6,6.1867"
         style="fill:#f9b2b2;fill-opacity:1;fill-rule:nonzero;stroke:none;stroke-width:0.133333" />
      <path
         id="path69"
         d="m 3709.9866,1136.4801 c -124.28,39.52 -260.0134,185.0666 -390.5733,176.16 -69.52,-5.8934 -106.6,-70.7067 -118.84,-132.7067 -22.0267,-115 -0.9467,-239.62666 49.96,-344.34665 20.4133,-39.72 50.2266,-82.50667 93.9199,-101.30667 109.56,-52.52 225.4,20.2 264.64,126.74667 l -16.8266,-13.81334 c 48.7733,7.97334 95.0666,24.41333 136.7466,51.54667 65.16,41.33333 107.5067,120.28002 84.9867,197.08002 -18.6933,69.4533 -68.1467,129.12 -127.4,166.4133 31.72,-33.6133 57.92,-71.12 76.0667,-111.4133 62,-132.68 -19.4,-218.98669 -145.3734,-254.84002 -10.2533,-2.90667 -21.4133,-5.61334 -30.9466,-7.25334 -7.96,-1.10666 -14.36,-6.69333 -16.8267,-13.81333 -31.1067,-89.37333 -127.8133,-151.51999 -217.04,-100.66666 -30.4,17.56 -49.3333,47.54666 -65.5733,79.61333 -35.2,73.48 -51.3333,156.68002 -53.5733,237.84002 -0.1067,68.76 6.9733,176.1866 90.04,190.0266 110.3866,13.72 267.9733,-122.8666 386.6133,-145.2666"
         style="fill:#650000;fill-opacity:1;fill-rule:nonzero;stroke:none;stroke-width:0.133333" />
      <path
         id="path70"
         d="m 1794.5733,764.48008 c 25.2267,-79.02666 74.0533,-155.30666 150.48,-193.42666 l 14.2667,36.18666 c -35.9467,11.2 -68.6534,32.93334 -95.4934,60.12 -27.8533,28.25334 -51.56,61.28 -69.2533,97.12"
         style="fill:#650000;fill-opacity:1;fill-rule:nonzero;stroke:none;stroke-width:0.133333" />
      <path
         id="path71"
         d="m 2498.6133,2222.64 c 41.2,63.76 134.5333,85.6134 198.4533,45.8134 20.2933,-12.7467 36.1333,-31.6934 46.64,-53.9067 2.28,-4.8933 8.1067,-7 12.9733,-4.6933 4.6,2.1733 6.68,7.5066 4.9734,12.1733 -41.8,117.0933 -219.5334,113 -263.04,0.6133"
         style="fill:#650000;fill-opacity:1;fill-rule:nonzero;stroke:none;stroke-width:0.133333" />
      <path
         id="path72"
         d="m 2708.2533,2200.96 c 25.7066,-11.8266 59.1733,6.72 64.48,34.16 2.2,8.7734 1.2933,17.9867 -1.8267,26.36 -2.7467,-3.8266 -4.3067,-7.5333 -6.3733,-10.9733 -12.2934,-24.0133 -32.0667,-37.7467 -56.28,-49.5467"
         style="fill:#650000;fill-opacity:1;fill-rule:nonzero;stroke:none;stroke-width:0.133333" />
      <path
         id="path73"
         d="m 3117.3999,1780.1067 c -10.8533,125.0934 -107.4533,218.88 -215.7733,209.4934 -108.3067,-9.4 -187.3333,-118.4134 -176.48,-243.4934 10.84,-125.0933 107.44,-218.88 215.76,-209.4933 108.32,9.4 187.3333,118.4133 176.4933,243.4933"
         style="fill:#650000;fill-opacity:1;fill-rule:nonzero;stroke:none;stroke-width:0.133333" />
      <path
         id="path74"
         d="m 3059.5599,1740.4534 c -3.88,44.7067 -35.64,78.4667 -70.96,75.4133 -35.32,-3.0666 -60.8,-41.7866 -56.9333,-86.4933 3.88,-44.72 35.6533,-78.48 70.9733,-75.4133 35.3067,3.0666 60.8,41.7866 56.92,86.4933"
         style="fill:#ffffff;fill-opacity:1;fill-rule:nonzero;stroke:none;stroke-width:0.133333" />
      <path
         id="path75"
         d="m 2844.3733,1843.6267 c -0.6667,0 -1.3467,-0.027 -2.0134,-0.08 -19.56,-1.6933 -33.2933,-27.6 -30.6666,-57.8533 2.5333,-29.2133 19.3733,-51.8 38.1466,-51.8 0.6667,0 1.3467,0.027 2.0134,0.08 19.56,1.7067 33.2933,27.6 30.6666,57.8533 -2.5333,29.2134 -19.3733,51.8 -38.1466,51.8"
         style="fill:#843333;fill-opacity:1;fill-rule:nonzero;stroke:none;stroke-width:0.133333" />
      <path
         id="path76"
         d="m 2212.8399,1635.5334 c -10.8533,125.08 -107.4533,218.8667 -215.7733,209.48 -108.32,-9.3867 -187.3333,-118.4 -176.48,-243.4933 10.84,-125.08 107.44,-218.88 215.76,-209.48 108.32,9.3866 187.3333,118.4 176.4933,243.4933"
         style="fill:#650000;fill-opacity:1;fill-rule:nonzero;stroke:none;stroke-width:0.133333" />
      <path
         id="path77"
         d="m 2154.9999,1595.8801 c -3.88,44.7066 -35.6533,78.4666 -70.96,75.4 -35.32,-3.0534 -60.8,-41.7867 -56.9333,-86.4934 3.88,-44.7066 35.6533,-78.4666 70.9733,-75.4 35.3067,3.0534 60.8,41.7867 56.92,86.4934"
         style="fill:#ffffff;fill-opacity:1;fill-rule:nonzero;stroke:none;stroke-width:0.133333" />
      <path
         id="path78"
         d="m 1939.8133,1699.0534 c -0.6667,0 -1.3467,-0.027 -2.0133,-0.093 -19.56,-1.6934 -33.2934,-27.5867 -30.6667,-57.8534 2.5333,-29.2 19.3733,-51.8 38.1467,-51.8 0.6666,0 1.3333,0.027 2.0133,0.093 19.56,1.6933 33.2933,27.6 30.6667,57.8533 -2.5334,29.2133 -19.3867,51.8 -38.1467,51.8"
         style="fill:#843333;fill-opacity:1;fill-rule:nonzero;stroke:none;stroke-width:0.133333" />
      <path
         id="path79"
         d="m 2677.8399,2004.72 c -28.72,88.3334 -170.5733,163.4534 -351.7066,129.1467 -174.0134,-32.9467 -238.2667,-150.84 -229.92,-234.5733 9.5866,-96.16 111.9866,-214.6 310.8,-195.32 172.68,16.7333 318.44,154.3067 270.8266,300.7466"
         style="fill:#ed6882;fill-opacity:1;fill-rule:nonzero;stroke:none;stroke-width:0.133333" />
      <path
         id="path80"
         d="m 2677.8666,2004.7467 c -28.72,88.32 -170.6,163.44 -351.7333,129.1067 -174.04,-32.9334 -238.2667,-150.8 -229.88,-234.5333 0.5466,-5.3334 1.3066,-10.6934 2.3733,-16.0667 26.2933,66.16 94.5467,132.04 217.7067,155.4133 181.12,34.2533 323.0133,-40.8666 351.72,-129.1866 2.96,-9.0134 5.1066,-18.04 6.6,-26.9867 14.56,38.2133 17.0133,79.88 3.2133,122.2533"
         style="fill:#e8496b;fill-opacity:1;fill-rule:nonzero;stroke:none;stroke-width:0.133333" />
      <path
         id="path81"
         d="m 2101.3066,1957.0534 c -0.36,-1.3867 -0.7067,-2.7733 -1.04,-4.16 0.3333,1.3733 0.68,2.7467 1.04,4.1333 0,0 0,0.013 0,0.027 m 460.16,-202.12 c -0.08,-0.04 -0.1467,-0.093 -0.2267,-0.1333 0.08,0.04 0.1467,0.093 0.2267,0.1333 m -0.28,-0.1733 c -44.7333,-27.1467 -98.0267,-45.3467 -154.1733,-50.7867 -14.5334,-1.4133 -28.52,-2.0933 -42.0267,-2.0933 -54.68,0 -100.9467,11.0533 -138.8667,28.9866 37.9334,-17.9466 84.2134,-29 138.9067,-29 13.4933,0 27.48,0.6667 42,2.08 56.1333,5.44 109.4267,23.6667 154.16,50.8134"
         style="fill:#fdefef;fill-opacity:1;fill-rule:nonzero;stroke:none;stroke-width:0.133333" />
      <path
         id="path82"
         d="m 2101.3066,1957.0267 c -0.36,-1.3866 -0.7067,-2.76 -1.04,-4.1333 -0.8133,-3.4133 -1.52,-6.8133 -2.1333,-10.2 0.8533,4.7467 1.9066,9.5067 3.1733,14.3067 0,0 0,0.013 0,0.027 m 10.24,-47.2 c -5.08,-8.76 -9.36,-17.6266 -12.8933,-26.5066 11.36,-56.52 53.64,-117.5467 127.4666,-152.4534 37.92,-17.9333 84.1867,-28.9866 138.8667,-28.9866 13.5067,0 27.4933,0.68 42.0267,2.0933 56.1466,5.44 109.44,23.64 154.1733,50.7867 0.013,0.013 0.04,0.027 0.053,0.04 0.08,0.04 0.1467,0.093 0.2267,0.1333 52.92,32.2 93.8133,76.8933 113.1733,127.7067 -1.4933,8.8933 -3.64,17.8666 -6.5866,26.84 0,0.013 0,0.027 0,0.027 -31.7334,-57.84 -91.7867,-105.4266 -163.9867,-131.8133 -0.04,0.3067 -0.08,0.6 -0.12,0.8933 -3.44,17.0934 -22.8533,28.2134 -46.3867,28.2134 -4.9866,0 -10.1733,-0.5067 -15.4266,-1.5467 -29.9867,-6 -50.9067,-27.6667 -46.8134,-48.3733 0.1067,-0.4534 0.2,-0.9067 0.3067,-1.28 -8.6533,-0.52 -17.1467,-0.7734 -25.4133,-0.7734 -144.6,0 -230.28,77.28 -258.6667,155 m -15.2933,-10.5066 c 0.2133,-2.2667 0.4933,-4.5467 0.8266,-6.84 -0.32,2.28 -0.6,4.56 -0.8266,6.84"
         style="fill:#fad1d9;fill-opacity:1;fill-rule:nonzero;stroke:none;stroke-width:0.133333" />
      <path
         id="path83"
         d="m 2101.3066,1957.0001 c -1.2667,-4.8 -2.32,-9.56 -3.1733,-14.3067 -2.6667,-15.0267 -3.2534,-29.64 -1.88,-43.3733 v 0 c 0.2266,-2.28 0.5066,-4.56 0.8266,-6.84 0.4267,-3.04 0.96,-6.0934 1.5734,-9.16 3.5333,8.88 7.8133,17.7466 12.8933,26.5066 -5.2133,14.2534 -8.4933,28.5334 -9.8533,42.3467 -0.1334,1.6 -0.32,3.2267 -0.3867,4.8267 m 585.4267,-0.64 c -4.1467,-16.1734 -10.4667,-31.8534 -18.68,-46.8534 0,0 0,-0.013 0,-0.027 2.9466,-8.9734 5.0933,-17.9467 6.5866,-26.84 8.9334,23.4666 13.28,48.2666 12.0934,73.72"
         style="fill:#f8c8d2;fill-opacity:1;fill-rule:nonzero;stroke:none;stroke-width:0.133333" />
      <path
         id="path84"
         d="m 2677.8399,2004.72 h 0.067 z m -313.7733,-283.4399 c -167.12,0 -241.2133,106.8133 -248.5067,179.9333 -6.8,68.2533 44.6267,181.44 214.1867,213.5466 169.8133,32.1734 303.3067,-35.2133 329.6,-116.0533 16.04,-49.3333 8.3867,-100.0266 -22.12,-146.6133 -45.8533,-70 -134.7867,-119.3467 -232.08,-128.7733 -14.2667,-1.3867 -27.96,-2.04 -41.08,-2.04 z m 49.24,440.3999 c -28.9733,0 -59.36,-2.7466 -90.8,-8.7066 -174.6933,-33.08 -255.8133,-153.6267 -245.64,-255.6133 9.3467,-93.7867 107.6933,-234.5467 332.0267,-212.7467 108.7466,10.5333 208.7066,66.5467 260.8666,146.1733 37.2,56.7867 46.3867,119.0134 26.5867,179.9467 -26.2133,80.5866 -136.4133,150.9466 -283.04,150.9466"
         style="fill:#650000;fill-opacity:1;fill-rule:nonzero;stroke:none;stroke-width:0.133333" />
      <path
         id="path85"
         d="m 2262.1066,1913.2667 c -7.04,45.56 -27.92,80.16 -46.6267,77.2667 -18.7066,-2.8933 -28.1733,-42.1733 -21.1333,-87.7467 7.04,-45.56 27.92,-80.16 46.6267,-77.2666 18.72,2.88 28.1733,42.1733 21.1333,87.7466"
         style="fill:#650000;fill-opacity:1;fill-rule:nonzero;stroke:none;stroke-width:0.133333" />
      <path
         id="path86"
         d="m 2486.8533,1947.9867 c -7.04,45.5734 -27.92,80.16 -46.6267,77.28 -18.72,-2.8933 -28.1733,-42.1866 -21.1333,-87.7466 7.04,-45.5734 27.92,-80.1734 46.6266,-77.28 18.7067,2.8933 28.1734,42.1733 21.1334,87.7466"
         style="fill:#650000;fill-opacity:1;fill-rule:nonzero;stroke:none;stroke-width:0.133333" />
      <path
         id="path87"
         d="m 3440.6799,1012.3201 c 37.5067,-68.68002 92.7867,-143.20002 175.2933,-157.74669 l 2.88,38.78667 c -16.1866,-0.30667 -33.2666,3.36 -49.7866,10.24 -51.6934,22.25333 -94.1467,64.34666 -128.3867,108.72002"
         style="fill:#650000;fill-opacity:1;fill-rule:nonzero;stroke:none;stroke-width:0.133333" />
      <path
         id="path88"
         d="m 1893.08,2805.4934 c 0,0 -49.8134,109.4533 30.88,133.52 55.5333,16.5466 169.2399,-16.7067 187.5599,-74.0267 27.88,-87.2133 -58.4533,-194.48 -58.4533,-194.48 L 1893.08,2805.4934"
         style="fill:#f9b2b2;fill-opacity:1;fill-rule:nonzero;stroke:none;stroke-width:0.133333" />
      <path
         id="path89"
         d="m 1908.8133,2817.1334 c -7,17.32 -18.4533,56.6266 -7.08,81.5066 4.9333,10.8 13.9867,18.04 27.68,22.12 48.8667,14.5734 150.0666,-18.04 163.9733,-61.5733 18.64,-58.3067 -22.6133,-129.7067 -43.72,-160.8933 z m 48.9733,145.16 c -14.48,0 -27.8933,-1.6534 -39.2666,-5.04 -24.1867,-7.2134 -41.9867,-22.0534 -51.48,-42.9067 -21.5867,-47.44 5.5466,-109.7867 8.7066,-116.7467 1.1734,-2.56 2.9067,-4.84 5.0534,-6.6666 l 159.9866,-134.9867 c 3.92,-3.2933 8.9867,-4.8933 14.1067,-4.3867 5.1066,0.48 9.8,3.0134 13,7.0134 3.8,4.7066 92.4133,116.3333 61.7733,212.2133 -18.4267,57.64 -106.1333,91.5067 -171.88,91.5067"
         style="fill:#650000;fill-opacity:1;fill-rule:nonzero;stroke:none;stroke-width:0.133333" />
      <path
         id="path90"
         d="m 1559.72,2792.44 c 22.5866,73.4267 117.44,80.6667 132.1733,17.64 0,0 -65.1733,-145.9733 -103.4267,-139.5733 -38.24,6.4 -28.7466,121.9333 -28.7466,121.9333"
         style="fill:#f9c9ca;fill-opacity:1;fill-rule:nonzero;stroke:none;stroke-width:0.133333" />
      <path
         id="path91"
         d="m 1559.72,2792.4267 c 14.12,37.6267 64.6133,65.0533 99.2,40.28 8.8533,-6.7733 13.2,-16.32 14.0266,-27.0533 2.64,-25.7734 40.5467,-22.8534 39.1867,3.04 -22.6267,87.72 -138.4667,63.88 -152.4133,-16.2667"
         style="fill:#650000;fill-opacity:1;fill-rule:nonzero;stroke:none;stroke-width:0.133333" />
      <path
         id="path92"
         d="m 1467.16,2860.8267 c 62.8933,-408.4933 398.5866,-429.72 539.5599,-372.4667 88.1067,35.7867 131.68,77.08 122.1467,233.0267 -3.52,57.44 -31.04,114.7467 -166.2,127.2533 C 1723.8533,2914.52 1663.16,2882.5867 1599,2710.7467 l -76.16,21.8933 c -20.5067,42.0134 -27.8934,106.2267 -55.68,128.1867"
         style="fill:#f9c9ca;fill-opacity:1;fill-rule:nonzero;stroke:none;stroke-width:0.133333" />
      <path
         id="path93"
         d="m 1655.2133,2528.8 c 0.013,0 0.053,-0.027 0.067,-0.04 -0.013,0.013 -0.053,0.04 -0.067,0.04 m 0.4133,-0.28 c 0.067,-0.04 0.1467,-0.093 0.2134,-0.1333 -0.067,0.04 -0.1467,0.093 -0.2134,0.1333 m 0.4134,-0.2666 c 0.1333,-0.08 0.2666,-0.1734 0.3866,-0.2534 -0.1333,0.08 -0.2533,0.1734 -0.3866,0.2534 m 0.4266,-0.28 c 55.36,-36.2934 116.04,-54.6134 173.4267,-60.6934 0.013,0.013 0,0 0.013,0.013 -57.3733,6.0666 -118.08,24.4 -173.44,60.68"
         style="fill:#ffdcf3;fill-opacity:1;fill-rule:nonzero;stroke:none;stroke-width:0.133333" />
      <path
         id="path94"
         d="m 2070.4399,2522.4 c -17.5733,-13.4133 -38.88,-23.9466 -63.72,-34.04 -29.0133,-11.7733 -66.2266,-20.24 -107.6533,-22.68 l -0.027,-0.013 c 41.4133,2.44 78.6533,10.8933 107.6533,22.68 24.8666,10.0933 46.1733,20.6267 63.7466,34.0533"
         style="fill:#fbcdcd;fill-opacity:1;fill-rule:nonzero;stroke:none;stroke-width:0.133333" />
      <path
         id="path95"
         d="m 1829.9066,2467.2934 c -0.013,-0.013 0,0 -0.013,-0.013 15.12,-1.6 29.9867,-2.3466 44.4933,-2.3466 8.36,0 16.5867,0.2533 24.6534,0.7333 l 0.027,0.013 c -8.08,-0.48 -16.32,-0.7333 -24.6933,-0.7333 -14.4933,0 -29.36,0.7467 -44.4667,2.3467"
         style="fill:#9b5959;fill-opacity:1;fill-rule:nonzero;stroke:none;stroke-width:0.133333" />
      <path
         id="path96"
         d="m 2070.6399,2522.56 c -0.013,-0.013 -0.027,-0.027 -0.053,-0.04 0.013,0.013 0.04,0.027 0.053,0.04"
         style="fill:#fbcdcd;fill-opacity:1;fill-rule:nonzero;stroke:none;stroke-width:0.133333" />
      <path
         id="path97"
         d="m 1471.5866,2835.1734 c 29.52,-155.72 100.4934,-251.3867 183.6267,-306.3734 0.013,0 0.053,-0.027 0.067,-0.04 0.12,-0.08 0.2266,-0.1466 0.3466,-0.24 0.067,-0.04 0.1467,-0.093 0.2134,-0.1333 0.067,-0.053 0.1333,-0.08 0.2,-0.1333 0.1333,-0.08 0.2533,-0.1734 0.3866,-0.2534 0.013,-0.013 0.027,-0.013 0.04,-0.027 55.36,-36.28 116.0667,-54.6134 173.44,-60.68 15.1067,-1.6 29.9734,-2.3467 44.4667,-2.3467 8.3733,0 16.6133,0.2533 24.6933,0.7333 41.4267,2.44 78.64,10.9067 107.6533,22.68 24.84,10.0934 46.1467,20.6267 63.72,34.04 0.04,0.04 0.093,0.08 0.1467,0.12 0.027,0.013 0.04,0.027 0.053,0.04 30.6,23.4534 49.8267,55.7067 56.6667,109.7734 -19.5867,-51.6134 -58.0133,-76.16 -113.2933,-98.6267 -36.0133,-14.64 -84.2933,-24.3467 -137.56,-24.3467 -147.7733,0 -334.0933,74.64 -404.8667,325.8134"
         style="fill:#fbdcdc;fill-opacity:1;fill-rule:nonzero;stroke:none;stroke-width:0.133333" />
      <path
         id="path98"
         d="m 1695.8533,2771.1067 c -6.3067,38.8133 31.72,66.3733 116.96,64.3733 70.4133,-1.6533 118.7867,-35.8533 142.3733,-33.3733 23.5734,2.4667 101.84,-11.5733 125.1467,-55.7733 15.7466,-29.88 14.96,-71.0134 6.8,-75.8267 -8.16,-4.8133 -83.44,45.9467 -149.8533,54.9733 -65.4534,8.88 -229.6667,-26.76 -241.4267,45.6267"
         style="fill:#f9b2b2;fill-opacity:1;fill-rule:nonzero;stroke:none;stroke-width:0.133333" />
      <path
         id="path99"
         d="m 1448.3466,2857.92 c 33.1734,-238.2666 190.08,-419.6266 442.7734,-411.9733 70.4133,2.84 142.5999,22.3067 198.6266,67.1333 34.9467,28.4134 52.8667,75.9067 57.4133,118.1334 4.0267,43.2666 5.8934,85.24 -3.4266,127.44 -19.1467,79.0266 -107.8267,106.2533 -179.0667,111.64 -35.6266,10.7866 -115.4533,29.36 -168.3066,29.6533 -125.1467,4.5467 -173.7334,-79.6933 -197.36,-189.2 18.6133,33.32 36.4266,67.0533 59.2933,95.0667 47.4133,62.4 118.6133,61.28 190.3467,47.68 36.0666,-6.3734 72.1466,-16.0667 108.24,-25.8134 26.3466,-3.3866 53.1333,-6.6266 77.0399,-15.0533 40.0934,-12.6133 69.3334,-40.2267 73.52,-81.6667 3.3334,-31.0533 3.6267,-64.52 0.36,-94.92 -2.88,-24.7466 -9,-48.44 -21.0533,-67.7333 -36.9333,-57.0667 -131.76,-81.5867 -197.1066,-83.72 -159.52,-7.2533 -300.68,82.4133 -361.92,230.04 -20.5467,47.1333 -33.7467,97.6933 -41.7467,149.1333 -4.3867,24.5467 -40.7867,19.28 -37.6267,-5.84"
         style="fill:#650000;fill-opacity:1;fill-rule:nonzero;stroke:none;stroke-width:0.133333" />
      <path
         id="path100"
         d="m 3698.1999,3420.4 c -51.5333,85.28 -125.48,143.6667 -213.44,142.3067 -153.3333,-3.1467 -164.52,-132.96 -164.16,-213.6534 -2.5066,-167.9733 98.9867,-449.5466 -324.96,-462.1999 -5.7466,-0.16 -11.5466,-0.32 -17.5066,-0.36 l -243.1734,-200.4267 c 391.44,-6.8533 869.6267,-168.8667 1023.28,303.6933 41.0267,135.1467 13.0133,309.8534 -60.04,430.64"
         style="fill:#ffffff;fill-opacity:1;fill-rule:nonzero;stroke:none;stroke-width:0.133333" />
      <path
         id="path101"
         d="m 3755.1332,3285.84 c -13.44,48.52 -32.7066,94.4667 -56.92,134.5333 -51.56,85.3334 -125.4933,143.6667 -213.4533,142.36 -153.32,-3.16 -164.5066,-132.96 -164.1466,-213.6666 -0.6267,-42.0133 5.2533,-91.1067 7.7733,-141.36 7.6133,-150.6533 -14.8,-311.3867 -332.7467,-320.8267 -5.7333,-0.16 -11.56,-0.32 -17.4933,-0.3733 L 2734.9733,2686.08 c 391.4133,-6.88 869.6133,-168.88 1023.2666,303.6667 27.4,90.36 23.9867,198.32 -3.1067,296.0933"
         style="fill:#f9c9ca;fill-opacity:1;fill-rule:nonzero;stroke:none;stroke-width:0.133333" />
      <path
         id="path102"
         d="m 3758.2399,2989.76 c -9.84,-30.2933 -21.04,-58 -33.44,-83.28 -15.08,-30.72 -31.9333,-57.8533 -50.4267,-81.8666 33.72,43.76 62.0534,98.0533 83.8667,165.1466"
         style="fill:#ffdcf3;fill-opacity:1;fill-rule:nonzero;stroke:none;stroke-width:0.133333" />
      <path
         id="path103"
         d="m 3727.7866,3363.0667 c 0.053,-0.12 0.1066,-0.24 0.16,-0.36 -0.053,0.12 -0.1067,0.24 -0.16,0.36 m 0.24,-0.5467 c 10.68,-24.4267 19.76,-50.1733 27.1066,-76.68 27.0934,-97.7733 30.5067,-205.7333 3.1067,-296.0933 -9.8533,-30.2933 -21.04,-57.9867 -33.44,-83.2667 12.4,25.28 23.6,52.9867 33.44,83.28 v 0 c 34.84,114.84 19.8667,258.2 -30.2133,372.76"
         style="fill:#ffffff;fill-opacity:1;fill-rule:nonzero;stroke:none;stroke-width:0.133333" />
      <path
         id="path104"
         d="m 3725.4266,3368.3867 c 27.0666,-106.9733 3.2933,-309.2133 -11.76,-362.8267 -92.7734,-330.3333 -457.5867,-322.0533 -599.68,-347.2266 41.3733,-2.7334 82.3467,-4.52 122.4267,-4.52 174.4666,0 332.4666,33.8666 437.9599,170.8 18.4934,24.0133 35.3467,51.1466 50.4267,81.8666 12.4,25.28 23.5867,52.9734 33.44,83.2667 27.4,90.36 23.9867,198.32 -3.1067,296.0933 -7.3466,26.5067 -16.4266,52.2533 -27.1066,76.68 -0.027,0.053 -0.053,0.1333 -0.08,0.1867 -0.053,0.12 -0.1067,0.24 -0.16,0.36 -0.7734,1.7866 -1.56,3.56 -2.36,5.32"
         style="fill:#fbdcdc;fill-opacity:1;fill-rule:nonzero;stroke:none;stroke-width:0.133333" />
      <path
         id="path105"
         d="m 3698.1999,3420.4 c -51.5333,85.28 -125.48,143.6667 -213.44,142.3067 -153.3333,-3.1334 -164.52,-132.96 -164.16,-213.6534 -2.5066,-167.9733 98.9867,-449.5466 -324.96,-462.1999 72.8534,-20.3867 237,-47.7734 346.5467,74.9466 124.44,139.3734 -7,407.64 87.96,492.1467 101.6,90.4133 208.36,21.8933 268.0533,-33.5467"
         style="fill:#f9b2b2;fill-opacity:1;fill-rule:nonzero;stroke:none;stroke-width:0.133333" />
      <path
         id="path106"
         d="m 3698.2132,3420.3733 c -51.56,85.3334 -125.4933,143.6667 -213.4533,142.36 -153.32,-3.16 -164.5066,-132.96 -164.1466,-213.6666 -0.6267,-42.0133 5.2533,-91.1067 7.7733,-141.36 20.48,-17.0133 44.7866,-31.2933 71.2533,-42.5333 -1.0933,117.3066 -27.4,237.2399 30.5067,288.7599 101.6133,90.4134 208.36,21.8934 268.0666,-33.56"
         style="fill:#595959;fill-opacity:1;fill-rule:nonzero;stroke:none;stroke-width:0.133333" />
      <path
         id="path107"
         d="m 3755.1332,3285.84 c -13.44,48.52 -32.7066,94.4667 -56.92,134.5333 -51.56,85.3334 -125.4933,143.6667 -213.4533,142.36 -153.32,-3.16 -164.5066,-132.96 -164.1466,-213.6666 -0.6267,-42.0133 5.2533,-91.1067 7.7733,-141.36 127.3066,-105.64 401.3066,-105.64 426.7466,78.1333"
         style="fill:#f9c9ca;fill-opacity:1;fill-rule:nonzero;stroke:none;stroke-width:0.133333" />
      <path
         id="path108"
         d="m 3698.2132,3420.3733 c -51.56,85.3334 -125.4933,143.6667 -213.4533,142.36 -153.32,-3.16 -164.5066,-132.96 -164.1466,-213.6666 -0.6267,-42.0133 5.2533,-91.1067 7.7733,-141.36 20.48,-17.0133 44.7866,-31.2933 71.2533,-42.5333 -1.0933,117.3066 -27.4,237.2399 30.5067,288.7599 101.6133,90.4134 208.36,21.8934 268.0666,-33.56"
         style="fill:#f9b2b2;fill-opacity:1;fill-rule:nonzero;stroke:none;stroke-width:0.133333" />
      <path
         id="path109"
         d="m 3264.0133,2654.12 c -208.4134,20.4934 -350.72,51.7467 -487.28,66.3734 l -41.8134,-34.44 c 171.2667,-2.9734 359.0934,-35.6934 529.0934,-31.9334"
         style="fill:#f9b2b2;fill-opacity:1;fill-rule:nonzero;stroke:none;stroke-width:0.133333" />
      <path
         id="path110"
         d="m 2734.9333,2686.0667 c 305.1333,-25.0533 742.2133,-156.9067 961.3733,129.5733 38.1333,50.84 65.1733,108.0534 84.7466,168.24 42.92,152.24 15,321.4534 -66.6533,456.0667 -50.36,82.6933 -139.8933,154.88 -242.1067,145.84 -73.5866,-3.3734 -135.2666,-44.0934 -158.3066,-114.6534 -39.5867,-119.6133 6.5867,-244.2799 -9.0933,-365.3866 -17.88,-168.4267 -186.8134,-196.9867 -326.7734,-219.2533 60.96,-8.0934 124.0134,-6.72 183.9067,8.76 102.6667,25.5333 170.08,99.4266 183.96,204.6666 9.16,62.0134 3.1733,124.1867 -0.6267,185.3867 -2.9467,75.7466 -11.6933,181.9866 56.3733,230.8 42.08,27.8933 104.6267,29.5333 151.5467,9.5733 50.9867,-21.4 90.9733,-64.48 120.4,-111.3467 59.9467,-97.7199 86.92,-218.2133 77.96,-332.4799 -4.2933,-58.1734 -22.3733,-112.8667 -47.5733,-164.8667 -82.64,-175.2667 -242.04,-237.24 -427.1067,-242.8533 -180.6133,-7.24 -361.2,22.5866 -542.0266,11.9333"
         style="fill:#650000;fill-opacity:1;fill-rule:nonzero;stroke:none;stroke-width:0.133333" />
      <path
         id="path111"
         d="m 3588.0666,3342.52 c -3.2267,78.2933 -17.92,219.8533 -111.4134,239.5333 l -4.7066,-38.6133 c 71.92,-5.1867 105.2266,-141.0667 116.12,-200.92"
         style="fill:#650000;fill-opacity:1;fill-rule:nonzero;stroke:none;stroke-width:0.133333" />
      <path
         id="path112"
         d="m 2177.5599,3416.9333 c -36.9733,-66.4666 -121.2133,-69.48 -161.68,-15.5466 -36.1466,48.1733 -29.5066,123.2 6.1467,158.8533 47.1333,47.1467 117.1067,36.48 149.9333,-5.4667 0,0 13.4134,-18.4266 17.1334,-61.8933 3.7333,-43.5333 -11.5334,-75.9467 -11.5334,-75.9467"
         style="fill:#fac9ca;fill-opacity:1;fill-rule:nonzero;stroke:none;stroke-width:0.133333" />
      <path
         id="path113"
         d="m 2094.9599,3561.3333 c -56.48,-3.1066 -72.48,-57.28 -73.0933,-80.9733 -0.5467,-21.28 8.72,31.8 72.8133,31.8 64.0934,0 85.56,-53 82.88,-21.84 -2.52,29.52 -21.6266,74.3867 -82.6,71.0133"
         style="fill:#f2a5a5;fill-opacity:1;fill-rule:nonzero;stroke:none;stroke-width:0.133333" />
      <path
         id="path114"
         d="m 2177.5599,3416.9333 c -24.7866,-32.84 -70.68,-50.96 -109.1333,-35.44 -55.64,21.12 -69.1733,95.2934 -47.2267,145.2134 25.76,56.1066 100.2,71 150.76,28.0666 -10.24,20.48 -30.52,36.28 -53.8133,43.8667 -84.3067,24.6533 -151.9333,-46.84 -145.4266,-129.8267 2.0133,-50.7333 35.5199,-103.8266 87.5066,-115.1466 48.6133,-12.6 102.36,17.0533 117.3333,63.2666"
         style="fill:#650000;fill-opacity:1;fill-rule:nonzero;stroke:none;stroke-width:0.133333" />
      <path
         id="path115"
         d="m 2085.9199,3531.2533 c 3.2134,-1.5866 0.56,-18.6533 6.52,-44.3066 25.6,-7.2934 42.7467,-5.2 44.0934,-8.4934 1.3333,-3.2933 -14.8267,-13.9466 -40.4934,-9.1866 3.4267,-25.7734 -7.8133,-41.4 -11.0266,-39.8134 -3.2134,1.5867 -0.5467,18.5734 -6.5334,44.32 -25.5866,7.28 -42.7333,5.1867 -44.0666,8.4934 -1.3467,3.2933 14.7733,14 40.4666,9.1733 -3.44,25.7333 7.84,41.4 11.04,39.8133"
         style="fill:#650000;fill-opacity:1;fill-rule:nonzero;stroke:none;stroke-width:0.133333" />
    </g>
  </g>
</svg>
